<?xml version="1.0" encoding="UTF-8" standalone="no"?>
<svg
   id="svg4"
   xml:space="preserve"
   viewBox="0 0 700 180"
   y="0px"
   x="0px"
   version="1.1"
   sodipodi:docname="interflow-logo-white.svg"
   width="700"
   height="180"
   inkscape:version="1.3 (0e150ed, 2023-07-21)"
   xmlns:inkscape="http://www.inkscape.org/namespaces/inkscape"
   xmlns:sodipodi="http://sodipodi.sourceforge.net/DTD/sodipodi-0.dtd"
   xmlns="http://www.w3.org/2000/svg"
   xmlns:svg="http://www.w3.org/2000/svg"
   xmlns:rdf="http://www.w3.org/1999/02/22-rdf-syntax-ns#"
   xmlns:cc="http://creativecommons.org/ns#"
   xmlns:dc="http://purl.org/dc/elements/1.1/"><sodipodi:namedview
     id="namedview1"
     pagecolor="#ffffff"
     bordercolor="#000000"
     borderopacity="0.25"
     inkscape:showpageshadow="2"
     inkscape:pageopacity="0.0"
     inkscape:pagecheckerboard="0"
     inkscape:deskcolor="#d1d1d1"
     inkscape:zoom="0.30729167"
     inkscape:cx="510.91525"
     inkscape:cy="384"
     inkscape:window-width="1504"
     inkscape:window-height="449"
     inkscape:window-x="0"
     inkscape:window-y="38"
     inkscape:window-maximized="0"
     inkscape:current-layer="svg4" /><metadata
     id="metadata10"><rdf:RDF><cc:Work
         rdf:about=""><dc:format>image/svg+xml</dc:format><dc:type
           rdf:resource="http://purl.org/dc/dcmitype/StillImage" /></cc:Work></rdf:RDF></metadata><defs
     id="defs8" /><path
     id="path2"
     d="m 24.742373,38.588644 c -3.2,0 -5.96,2.77 -5.96,5.97 v 89.879996 c 0,3.2 2.76,5.96 5.96,5.96 3.35,0 6.11,-2.76 6.11,-5.96 V 44.558644 c 0,-3.2 -2.76,-5.97 -6.11,-5.97 z m 334.179997,0 c -3.2,0 -5.96,2.77 -5.96,5.97 0,3.34 2.76,6.11 5.96,6.11 h 51.78 c 3.34,0 6.1,-2.77 6.1,-6.11 0,-3.2 -2.76,-5.97 -6.1,-5.97 z m 84.55,0 c -3.2,0 -5.96,2.77 -5.96,5.97 v 89.879996 c 0,3.2 2.76,5.96 5.96,5.96 3.35,0 6.11,-2.76 6.11,-5.96 V 44.558644 c 0,-3.2 -2.76,-5.97 -6.11,-5.97 z m -284.32,0.3 c -2.91,0 -5.24,2.32 -5.24,5.23 v 66.609996 c 0,15.13 10.33,27.78 24.29,30.69 3.2,0.73 6.26,-1.74 6.26,-5.09 v -1.6 c 0,-2.33 -1.6,-4.51 -3.93,-5.09 -8.29,-1.89 -14.54,-9.6 -14.54,-18.91 V 74.808644 h 13.23 c 2.91,0 5.24,-2.33 5.24,-5.24 0,-2.91 -2.33,-5.38 -5.24,-5.38 h -13.23 v -20.07 c 0,-2.91 -2.33,-5.23 -5.24,-5.23 z m 354.74,22.66 c -0.51,0 -1.15,0.01 -1.44,0.02 -0.29,0.01 -0.73,0.04 -1,0.06 -0.26,0.01 -0.75,0.05 -1.09,0.08 -0.34,0.03 -0.91,0.1 -1.28,0.14 -0.36,0.05 -0.93,0.13 -1.26,0.18 -0.33,0.06 -0.84,0.14 -1.14,0.2 -0.29,0.05 -0.79,0.16 -1.1,0.23 -0.32,0.07 -0.85,0.19 -1.19,0.28 -0.33,0.08 -0.85,0.22 -1.15,0.3 -0.3,0.09 -0.77,0.23 -1.04,0.32 -0.28,0.08 -0.81,0.26 -1.18,0.39 -0.37,0.13 -1,0.37 -1.4,0.53 -0.4,0.16 -0.97,0.39 -1.25,0.51 -0.29,0.12 -0.78,0.35 -1.1,0.5 -0.31,0.14 -0.84,0.41 -1.18,0.58 -0.33,0.17 -0.83,0.43 -1.1,0.59 -0.28,0.15 -0.72,0.41 -0.99,0.56 -0.26,0.16 -0.68,0.41 -0.93,0.57 -0.26,0.17 -0.73,0.48 -1.06,0.7 -0.32,0.21 -0.83,0.57 -1.13,0.79 -0.3,0.22 -0.78,0.58 -1.05,0.79 -0.28,0.22 -0.67,0.54 -0.88,0.71 -0.21,0.17 -0.59,0.49 -0.83,0.7 -0.24,0.21 -0.61,0.55 -0.83,0.75 -0.21,0.19 -0.62,0.58 -0.9,0.86 -0.28,0.28 -0.74,0.75 -1.03,1.05 -0.28,0.3 -0.64,0.69 -0.79,0.87 -0.16,0.18 -0.5,0.58 -0.76,0.88 -0.26,0.31 -0.65,0.8 -0.88,1.09 -0.22,0.28 -0.57,0.75 -0.78,1.03 -0.21,0.29 -0.58,0.82 -0.83,1.19 -0.25,0.38 -0.6,0.91 -0.77,1.2 -0.18,0.28 -0.44,0.71 -0.58,0.95 -0.14,0.24 -0.39,0.68 -0.55,0.98 -0.17,0.3 -0.49,0.93 -0.72,1.39 -0.23,0.46 -0.5,1.03 -0.6,1.25 -0.1,0.22 -0.3,0.69 -0.44,1.04 -0.15,0.34 -0.39,0.95 -0.54,1.35 -0.15,0.39 -0.36,0.99 -0.47,1.34 -0.12,0.35 -0.3,0.92 -0.4,1.26 -0.11,0.35 -0.28,0.97 -0.38,1.39 -0.11,0.42 -0.25,1.02 -0.32,1.34 -0.07,0.31 -0.18,0.84 -0.24,1.17 -0.06,0.33 -0.16,0.89 -0.21,1.24 -0.06,0.34 -0.12,0.83 -0.16,1.08 -0.03,0.24 -0.08,0.7 -0.11,1.01 -0.03,0.31 -0.07,0.82 -0.1,1.15 -0.02,0.32 -0.05,0.95 -0.07,1.4 -0.02,0.489996 -0.03,1.219996 -0.02,1.839996 0.01,0.56 0.03,1.23 0.05,1.48 0.02,0.26 0.05,0.76 0.09,1.11 0.03,0.35 0.08,0.89 0.12,1.19 0.04,0.3 0.1,0.75 0.14,1 0.04,0.25 0.12,0.69 0.17,0.98 0.06,0.29 0.16,0.79 0.22,1.1 0.07,0.31 0.19,0.8 0.26,1.08 0.07,0.28 0.18,0.71 0.25,0.95 0.07,0.24 0.21,0.71 0.31,1.04 0.1,0.33 0.29,0.9 0.42,1.26 0.13,0.36 0.31,0.86 0.4,1.09 0.09,0.24 0.26,0.67 0.38,0.95 0.12,0.29 0.34,0.79 0.49,1.13 0.15,0.33 0.46,0.99 0.7,1.46 0.23,0.47 0.56,1.1 0.72,1.4 0.17,0.3 0.44,0.79 0.61,1.08 0.17,0.3 0.44,0.74 0.6,1 0.15,0.25 0.41,0.66 0.57,0.91 0.16,0.25 0.35,0.54 0.43,0.65 l 0.13,0.2 0.01,10.6 0.01,10.61 3.74,-1.08 c 2.06,-0.59 5.45,-1.56 7.54,-2.16 2.08,-0.59 4.75,-1.36 5.93,-1.7 l 2.16,-0.62 0.66,0.23 c 0.37,0.13 0.94,0.31 1.27,0.41 0.33,0.1 0.86,0.25 1.18,0.34 0.32,0.08 0.88,0.22 1.25,0.3 0.37,0.09 0.91,0.2 1.19,0.26 0.29,0.05 0.71,0.13 0.94,0.16 0.23,0.04 0.65,0.11 0.92,0.14 0.27,0.04 0.77,0.1 1.13,0.14 0.35,0.04 0.89,0.09 1.19,0.12 0.3,0.02 0.77,0.05 1.04,0.07 0.27,0.01 0.99,0.04 1.6,0.05 0.67,0.01 1.43,0 1.94,-0.02 0.45,-0.02 1.09,-0.05 1.41,-0.07 0.33,-0.03 0.9,-0.08 1.27,-0.12 0.37,-0.03 0.96,-0.1 1.31,-0.15 0.34,-0.05 0.91,-0.14 1.27,-0.2 0.35,-0.06 0.89,-0.16 1.19,-0.22 0.3,-0.06 0.69,-0.14 0.87,-0.18 0.18,-0.04 0.66,-0.16 1.08,-0.27 0.41,-0.1 1.03,-0.27 1.38,-0.38 0.34,-0.1 0.91,-0.28 1.26,-0.39 0.35,-0.12 0.91,-0.32 1.24,-0.44 0.33,-0.12 0.84,-0.32 1.13,-0.44 0.28,-0.11 0.79,-0.33 1.12,-0.47 0.33,-0.15 0.92,-0.43 1.31,-0.62 0.39,-0.19 0.99,-0.5 1.34,-0.68 0.36,-0.19 0.9,-0.5 1.21,-0.68 0.31,-0.18 0.77,-0.46 1.02,-0.62 0.26,-0.15 0.72,-0.46 1.04,-0.67 0.32,-0.21 0.79,-0.54 1.04,-0.71 0.25,-0.18 0.64,-0.47 0.86,-0.64 0.23,-0.17 0.6,-0.46 0.83,-0.65 0.23,-0.18 0.61,-0.49 0.84,-0.69 0.23,-0.19 0.56,-0.48 0.73,-0.63 0.17,-0.15 0.56,-0.51 0.86,-0.79 0.31,-0.29 0.8,-0.77 1.1,-1.07 0.3,-0.31 0.72,-0.76 0.95,-1 0.22,-0.25 0.61,-0.69 0.86,-0.98 0.25,-0.29 0.63,-0.74 0.83,-1 0.21,-0.25 0.51,-0.65 0.68,-0.87 0.17,-0.22 0.47,-0.63 0.66,-0.9 0.19,-0.27 0.51,-0.72 0.69,-1 0.19,-0.29 0.48,-0.73 0.65,-1 0.16,-0.26 0.41,-0.66 0.54,-0.89 0.13,-0.22 0.37,-0.63 0.52,-0.91 0.16,-0.28 0.43,-0.79 0.61,-1.14 0.18,-0.34 0.43,-0.85 0.56,-1.13 0.13,-0.28 0.31,-0.67 0.4,-0.87 0.08,-0.2 0.25,-0.58 0.36,-0.85 0.11,-0.27 0.3,-0.75 0.42,-1.05 0.12,-0.31 0.34,-0.94 0.49,-1.39 0.16,-0.46 0.37,-1.11 0.47,-1.45 0.1,-0.34 0.27,-0.96 0.37,-1.38 0.11,-0.41 0.25,-1.01 0.32,-1.33 0.07,-0.31 0.17,-0.81 0.23,-1.11 0.06,-0.29 0.14,-0.76 0.18,-1.03 0.05,-0.28 0.12,-0.8 0.17,-1.15 0.05,-0.36 0.11,-0.9 0.14,-1.21 0.03,-0.31 0.08,-0.83 0.1,-1.16 0.02,-0.34 0.05,-0.92 0.07,-1.31 0.02,-0.38 0.03,-1.05 0.03,-1.47 0,-0.43 -0.01,-1.089996 -0.03,-1.469996 -0.02,-0.39 -0.05,-0.98 -0.07,-1.31 -0.02,-0.33 -0.07,-0.85 -0.1,-1.16 -0.03,-0.31 -0.09,-0.85 -0.14,-1.21 -0.05,-0.35 -0.12,-0.87 -0.17,-1.15 -0.04,-0.28 -0.12,-0.74 -0.18,-1.04 -0.06,-0.29 -0.16,-0.79 -0.23,-1.1 -0.07,-0.32 -0.21,-0.92 -0.32,-1.34 -0.1,-0.42 -0.26,-0.99 -0.35,-1.29 -0.08,-0.29 -0.25,-0.82 -0.36,-1.17 -0.12,-0.36 -0.3,-0.87 -0.4,-1.15 -0.1,-0.28 -0.29,-0.79 -0.43,-1.13 -0.14,-0.34 -0.35,-0.85 -0.47,-1.14 -0.12,-0.28 -0.35,-0.77 -0.5,-1.09 -0.15,-0.32 -0.41,-0.85 -0.58,-1.18 -0.17,-0.33 -0.43,-0.83 -0.59,-1.1 -0.15,-0.28 -0.39,-0.69 -0.52,-0.92 -0.13,-0.22 -0.38,-0.63 -0.55,-0.9 -0.16,-0.27 -0.49,-0.77 -0.73,-1.12 -0.23,-0.34 -0.59,-0.86 -0.8,-1.15 -0.21,-0.28 -0.56,-0.75 -0.78,-1.04 -0.23,-0.28 -0.59,-0.74 -0.82,-1.01 -0.22,-0.27 -0.55,-0.64 -0.71,-0.84 -0.17,-0.19 -0.47,-0.52 -0.66,-0.73 -0.2,-0.2 -0.59,-0.61 -0.87,-0.9 -0.29,-0.3 -0.76,-0.76 -1.05,-1.03 -0.3,-0.28 -0.68,-0.62 -0.85,-0.77 -0.17,-0.15 -0.5,-0.44 -0.73,-0.63 -0.23,-0.2 -0.61,-0.52 -0.85,-0.71 -0.24,-0.19 -0.64,-0.5 -0.89,-0.68 -0.24,-0.19 -0.64,-0.48 -0.88,-0.65 -0.24,-0.18 -0.77,-0.54 -1.18,-0.81 -0.41,-0.27 -1.03,-0.66 -1.37,-0.86 -0.35,-0.21 -0.85,-0.51 -1.12,-0.66 -0.27,-0.15 -0.91,-0.48 -1.42,-0.74 -0.51,-0.26 -1.17,-0.58 -1.47,-0.71 -0.31,-0.14 -0.82,-0.36 -1.14,-0.5 -0.32,-0.13 -0.91,-0.36 -1.3,-0.51 -0.4,-0.15 -1,-0.36 -1.35,-0.48 -0.35,-0.11 -0.94,-0.3 -1.31,-0.4 -0.37,-0.11 -0.88,-0.26 -1.15,-0.33 -0.26,-0.07 -0.69,-0.17 -0.96,-0.24 -0.27,-0.06 -0.86,-0.19 -1.32,-0.28 -0.46,-0.09 -1.11,-0.21 -1.46,-0.27 -0.35,-0.05 -0.93,-0.13 -1.29,-0.18 -0.36,-0.04 -0.94,-0.11 -1.28,-0.14 -0.34,-0.03 -0.82,-0.07 -1.06,-0.08 -0.25,-0.02 -0.76,-0.05 -1.13,-0.06 -0.37,-0.02 -1.09,-0.03 -1.59,-0.02 z m -420.529997,0.46 c -18.76,0 -34.03,15.71 -34.03,34.91 v 37.519996 c 0,3.2 2.76,5.96 5.96,5.96 3.35,0 6.11,-2.76 6.11,-5.96 V 96.918644 c 0,-12.66 9.89,-22.84 21.96,-22.84 12.069997,0 21.959997,10.18 21.959997,22.84 v 37.519996 c 0,3.2 2.62,5.96 5.96,5.96 3.35,0 6.11,-2.76 6.11,-5.96 V 96.918644 c 0,-19.2 -15.27,-34.91 -34.029997,-34.91 z m 147.029997,0 c -21.38,0 -38.83,17.89 -38.83,39.999996 0,21.96 17.45,39.85 38.83,39.85 12.07,0 22.83,-5.53 29.81,-14.4 3.2,-3.93 0.29,-9.75 -4.65,-9.75 -1.89,0 -3.64,0.88 -4.8,2.33 -4.8,5.96 -12.22,9.75 -20.36,9.75 -9.17,0 -17.16,-4.66 -22.11,-12.08 -2.04,-3.05 -3.49,-6.69 -4.22,-10.47 h 59.93 c 2.9,0 5.23,-2.32 5.23,-5.23 0,-1.89 -0.15,-3.639996 -0.29,-5.379996 -2.47,-19.49 -18.76,-34.62 -38.54,-34.62 z m 94.57,0.61 c -0.46,-0.01 -0.92,0.03 -1.4,0.12 -18.03,3.34 -31.7,19.63 -31.7,39.269996 v 32.43 c 0,3.2 2.76,5.96 5.96,5.96 3.35,0 6.11,-2.76 6.11,-5.96 v -32.43 c 0,-13.819996 9.45,-25.159996 21.96,-27.489996 2.91,-0.58 4.8,-3.06 4.8,-5.96 0,-3.31 -2.56,-5.84 -5.73,-5.94 z m 293.95,0.85 c -0.29,0 -0.44,0.14 -0.58,0.14 h -0.58 c -0.3,0 -0.44,0.15 -0.73,0.29 h -0.44 l -0.87,0.58 c -0.29,0.15 -0.44,0.29 -0.58,0.29 l -0.44,0.44 -0.58,0.58 c 0,0.15 -0.15,0.29 -0.29,0.44 l -0.44,1.02 -21.38,52.209996 -18.9,-51.919996 c -1.02,-3.2 -4.51,-4.8 -7.71,-3.64 -3.06,1.16 -4.66,4.51 -3.49,7.71 l 24.14,66.609996 c 0.87,2.33 3.05,3.93 5.53,3.93 h 0.14 c 2.47,0 4.66,-1.45 5.53,-3.78 l 21.67,-52.939996 21.67,52.939996 c 0.87,2.33 3.05,3.78 5.53,3.78 h 0.14 c 2.48,0 4.66,-1.6 5.53,-3.93 l 24.14,-66.609996 c 1.17,-3.2 -0.43,-6.55 -3.63,-7.71 -3.06,-1.16 -6.55,0.44 -7.71,3.64 l -18.76,51.919996 -21.38,-52.209996 -0.44,-1.02 -0.44,-0.44 c -0.14,-0.14 -0.29,-0.29 -0.43,-0.58 -0.15,-0.15 -0.29,-0.29 -0.58,-0.44 l -0.44,-0.29 -0.87,-0.58 c -0.15,0 -0.29,0 -0.44,-0.14 -0.29,0 -0.44,-0.15 -0.73,-0.15 h -0.58 z m -115,6.16 c 0.44,-0.01 1.08,0 1.42,0.02 0.33,0.01 0.79,0.04 1,0.06 0.22,0.01 0.64,0.05 0.94,0.08 0.31,0.03 0.85,0.1 1.23,0.15 0.37,0.06 0.92,0.15 1.22,0.2 0.3,0.06 0.77,0.15 1.05,0.21 0.27,0.06 0.77,0.18 1.09,0.27 0.33,0.08 0.86,0.23 1.19,0.33 0.34,0.1 0.86,0.27 1.17,0.38 0.31,0.1 0.75,0.26 0.98,0.35 0.23,0.09 0.62,0.25 0.86,0.35 0.23,0.1 0.62,0.26 0.86,0.37 0.23,0.11 0.72,0.34 1.07,0.52 0.36,0.18 0.88,0.45 1.16,0.61 0.28,0.15 0.73,0.41 1,0.57 0.27,0.17 0.71,0.44 0.98,0.62 0.27,0.18 0.66,0.44 0.87,0.59 0.21,0.15 0.63,0.46 0.93,0.69 0.31,0.22 0.79,0.6 1.07,0.84 0.28,0.24 0.7,0.59 0.92,0.79 0.22,0.2 0.77,0.73 1.22,1.18 0.45,0.45 0.98,0.99 1.18,1.22 0.2,0.22 0.55,0.64 0.79,0.92 0.24,0.29 0.65,0.81 0.92,1.17 0.27,0.35 0.62,0.85 0.8,1.09 0.17,0.25 0.47,0.72 0.68,1.04 0.2,0.33 0.53,0.87 0.73,1.22 0.2,0.35 0.53,0.97 0.73,1.38 0.21,0.41 0.47,0.94 0.58,1.19 0.11,0.24 0.28,0.64 0.38,0.87 0.1,0.23 0.25,0.61 0.34,0.84 0.09,0.23 0.25,0.67 0.35,0.98 0.11,0.31 0.27,0.8 0.36,1.11 0.09,0.3 0.23,0.78 0.31,1.08 0.08,0.29 0.21,0.84 0.29,1.22 0.09,0.38 0.19,0.9 0.24,1.16 0.05,0.27 0.13,0.78 0.18,1.15 0.06,0.37 0.13,0.92 0.16,1.22 0.03,0.31 0.07,0.73 0.08,0.94 0.02,0.22 0.04,0.67 0.06,1.01 0.02,0.34 0.03,0.929996 0.03,1.309996 0,0.38 -0.01,0.96 -0.03,1.3 -0.02,0.34 -0.04,0.8 -0.06,1.01 -0.01,0.22 -0.05,0.64 -0.08,0.94 -0.03,0.3 -0.1,0.85 -0.16,1.22 -0.05,0.37 -0.14,0.92 -0.19,1.21 -0.06,0.3 -0.16,0.8 -0.23,1.11 -0.07,0.32 -0.18,0.79 -0.25,1.05 -0.07,0.26 -0.17,0.63 -0.22,0.83 -0.06,0.19 -0.18,0.59 -0.27,0.88 -0.1,0.29 -0.25,0.76 -0.35,1.04 -0.11,0.28 -0.28,0.72 -0.38,0.99 -0.11,0.27 -0.32,0.77 -0.47,1.1 -0.14,0.33 -0.44,0.95 -0.65,1.37 -0.22,0.43 -0.55,1.06 -0.75,1.41 -0.2,0.34 -0.52,0.88 -0.72,1.19 -0.19,0.31 -0.5,0.77 -0.68,1.04 -0.18,0.26 -0.49,0.69 -0.69,0.96 -0.2,0.27 -0.51,0.67 -0.68,0.89 -0.18,0.22 -0.49,0.59 -0.7,0.84 -0.21,0.24 -0.58,0.66 -0.83,0.92 -0.24,0.27 -0.71,0.74 -1.03,1.06 -0.32,0.31 -0.77,0.73 -0.99,0.93 -0.22,0.2 -0.64,0.56 -0.92,0.8 -0.28,0.23 -0.76,0.61 -1.07,0.84 -0.3,0.23 -0.72,0.54 -0.93,0.69 -0.21,0.14 -0.51,0.35 -0.67,0.46 -0.16,0.11 -0.5,0.33 -0.76,0.49 -0.25,0.15 -0.75,0.45 -1.09,0.65 -0.35,0.19 -0.97,0.53 -1.38,0.73 -0.41,0.21 -0.94,0.47 -1.19,0.58 -0.25,0.11 -0.64,0.28 -0.87,0.38 -0.23,0.09 -0.64,0.26 -0.91,0.36 -0.27,0.1 -0.83,0.3 -1.23,0.44 -0.41,0.13 -0.99,0.31 -1.3,0.4 -0.3,0.08 -0.7,0.19 -0.89,0.24 -0.19,0.05 -0.6,0.14 -0.9,0.21 -0.31,0.07 -0.81,0.17 -1.1,0.23 -0.3,0.05 -0.84,0.14 -1.21,0.19 -0.38,0.06 -0.92,0.12 -1.23,0.16 -0.3,0.03 -0.72,0.07 -0.94,0.08 -0.21,0.02 -0.67,0.04 -1,0.06 -0.34,0.01 -0.93,0.03 -1.3,0.03 -0.37,0 -0.97,-0.02 -1.33,-0.03 -0.36,-0.02 -0.89,-0.05 -1.18,-0.07 -0.28,-0.03 -0.74,-0.07 -1.02,-0.1 -0.28,-0.03 -0.73,-0.09 -1,-0.13 -0.27,-0.04 -0.77,-0.12 -1.1,-0.18 -0.34,-0.06 -0.84,-0.16 -1.11,-0.23 -0.28,-0.06 -0.69,-0.15 -0.93,-0.21 -0.24,-0.06 -0.66,-0.18 -0.94,-0.26 -0.27,-0.08 -0.84,-0.26 -1.26,-0.4 -0.41,-0.14 -1.19,-0.42 -1.73,-0.63 -0.54,-0.2 -1.01,-0.37 -1.04,-0.37 -0.03,0 -0.96,0.26 -2.06,0.57 -1.11,0.32 -2.47,0.71 -3.02,0.87 -0.56,0.16 -2.23,0.64 -3.72,1.07 -1.49,0.43 -2.73,0.78 -2.76,0.79 l -0.05,0.01 v -13.12 l -0.4,-0.51 c -0.22,-0.27 -0.49,-0.62 -0.6,-0.78 -0.11,-0.15 -0.37,-0.54 -0.59,-0.87 -0.21,-0.32 -0.54,-0.82 -0.71,-1.11 -0.18,-0.28 -0.44,-0.7 -0.57,-0.94 -0.14,-0.23 -0.38,-0.66 -0.54,-0.95 -0.16,-0.29 -0.45,-0.85 -0.64,-1.23 -0.19,-0.39 -0.45,-0.94 -0.58,-1.22 -0.12,-0.29 -0.34,-0.82 -0.49,-1.18 -0.14,-0.36 -0.36,-0.96 -0.49,-1.33 -0.12,-0.37 -0.29,-0.92 -0.38,-1.21 -0.09,-0.29 -0.22,-0.81 -0.3,-1.15 -0.09,-0.34 -0.19,-0.81 -0.24,-1.04 -0.05,-0.23 -0.12,-0.65 -0.17,-0.92 -0.05,-0.28 -0.11,-0.7 -0.14,-0.94 -0.03,-0.24 -0.08,-0.64 -0.1,-0.89 -0.02,-0.25 -0.06,-0.63 -0.07,-0.85 -0.02,-0.23 -0.04,-0.83 -0.05,-1.34 -0.01,-0.55 0,-1.22 0.02,-1.669996 0.02,-0.4 0.05,-0.97 0.07,-1.26 0.03,-0.28 0.07,-0.74 0.1,-1.02 0.03,-0.28 0.1,-0.76 0.14,-1.08 0.05,-0.32 0.13,-0.82 0.19,-1.11 0.05,-0.29 0.16,-0.81 0.23,-1.15 0.08,-0.34 0.21,-0.88 0.29,-1.2 0.09,-0.31 0.24,-0.84 0.34,-1.16 0.1,-0.33 0.27,-0.85 0.38,-1.17 0.11,-0.31 0.32,-0.86 0.46,-1.21 0.14,-0.36 0.35,-0.84 0.45,-1.08 0.11,-0.24 0.36,-0.77 0.56,-1.18 0.21,-0.41 0.5,-0.98 0.66,-1.26 0.16,-0.29 0.42,-0.74 0.59,-1.01 0.16,-0.27 0.44,-0.71 0.61,-0.98 0.18,-0.27 0.45,-0.67 0.59,-0.87 0.15,-0.21 0.46,-0.63 0.68,-0.93 0.23,-0.3 0.59,-0.75 0.8,-1.01 0.21,-0.25 0.57,-0.67 0.79,-0.93 0.23,-0.25 0.76,-0.81 1.19,-1.23 0.42,-0.43 0.96,-0.94 1.19,-1.15 0.23,-0.21 0.58,-0.51 0.77,-0.67 0.2,-0.17 0.51,-0.43 0.7,-0.58 0.2,-0.16 0.58,-0.45 0.85,-0.65 0.27,-0.2 0.7,-0.51 0.96,-0.69 0.27,-0.18 0.73,-0.49 1.03,-0.68 0.31,-0.19 0.84,-0.51 1.2,-0.71 0.35,-0.21 1.02,-0.56 1.49,-0.8 0.47,-0.23 1.05,-0.51 1.29,-0.62 0.24,-0.1 0.73,-0.3 1.08,-0.45 0.36,-0.14 0.92,-0.35 1.25,-0.47 0.33,-0.11 0.87,-0.29 1.21,-0.39 0.33,-0.1 0.83,-0.25 1.12,-0.33 0.29,-0.07 0.78,-0.19 1.09,-0.26 0.32,-0.08 0.8,-0.18 1.08,-0.23 0.28,-0.05 0.8,-0.14 1.16,-0.19 0.37,-0.06 0.89,-0.13 1.17,-0.16 0.28,-0.03 0.76,-0.08 1.06,-0.1 0.29,-0.02 0.77,-0.05 1.04,-0.07 0.28,-0.01 0.87,-0.02 1.31,-0.02 z m -273.52,4.45 c 13.09,0 23.99,9.75 26.32,22.55 h -52.65 c 2.48,-12.8 13.24,-22.55 26.33,-22.55 z m 118.53,7.42 c -3.2,0 -5.96,2.76 -5.96,6.11 v 46.829996 c 0,3.2 2.76,5.96 5.96,5.96 3.34,0 6.11,-2.76 6.11,-5.96 V 93.568644 h 37.81 c 3.35,0 6.11,-2.76 6.11,-5.96 0,-3.35 -2.76,-6.11 -6.11,-6.11 z"
     fill="#ffffff" /></svg>
